<svg xmlns:xlink="http://www.w3.org/1999/xlink" xmlns="http://www.w3.org/2000/svg" enable-background="new 0 0 24 24" height="24" viewBox="0 0 24 24" width="24" focusable="false" style="pointer-events: none; display: block; width: 100%; height: 100%;"><path d="M15.83 15c-.52 1.38-2.19 2-3.79 2-1.59 0-3.28-.62-3.85-2h7.64m.69-1H7.49c-.27 0-.49.22-.46.47C7.34 16.83 9.7 18 12.05 18c2.35 0 4.69-1.18 4.93-3.54.03-.25-.2-.46-.46-.46zM12 3c4.96 0 9 4.04 9 9s-4.04 9-9 9-9-4.04-9-9 4.04-9 9-9m0-1C6.48 2 2 6.48 2 12s4.48 10 10 10 10-4.48 10-10S17.52 2 12 2zM6.94 9.73C7.19 9.25 7.72 9 8.5 9c.75 0 1.28.25 1.57.75.14.24.45.32.68.18.24-.14.32-.44.18-.68C10.6 8.68 9.91 8 8.5 8c-1.48 0-2.15.69-2.44 1.27-.13.25-.03.55.21.67.07.04.15.06.23.06.18 0 .36-.1.44-.27zm7 0c.25-.48.78-.73 1.56-.73.75 0 1.28.25 1.57.75.14.24.45.32.68.18.24-.14.32-.44.18-.68C17.6 8.68 16.91 8 15.5 8c-1.48 0-2.15.69-2.44 1.27-.13.25-.03.55.21.67.07.04.15.06.23.06.18 0 .36-.1.44-.27z" fill="#0F0F0F"></path></svg>